<?xml version="1.0" encoding="UTF-8" standalone="no"?>
<!-- Created with Inkscape (http://www.inkscape.org/) -->

<svg
   xmlns:dc="http://purl.org/dc/elements/1.1/"
   xmlns:cc="http://creativecommons.org/ns#"
   xmlns:rdf="http://www.w3.org/1999/02/22-rdf-syntax-ns#"
   xmlns:svg="http://www.w3.org/2000/svg"
   xmlns="http://www.w3.org/2000/svg"
   version="1.0"
   width="20"
   height="20"
   id="svg2514">
  <defs
     id="defs2516" />
  <metadata
     id="metadata2519">
    <rdf:RDF>
      <cc:Work
         rdf:about="">
        <dc:format>image/svg+xml</dc:format>
        <dc:type
           rdf:resource="http://purl.org/dc/dcmitype/StillImage" />
        <dc:title></dc:title>
      </cc:Work>
    </rdf:RDF>
  </metadata>
  <g
     transform="matrix(0,-1.1198645,-1.2231278,0,17.552904,-8.94899)"
     id="right">
    <g
       transform="matrix(1.0140845,0,0,-1.0041527,1.5070423,74.629403)"
       id="g4899"
       style="fill:#bebdbb;fill-opacity:1">
      <rect
         width="17.75"
         height="16.25"
         x="-27.125"
         y="60.0625"
         id="rect4901"
         style="fill:none;stroke:none" />
    </g>
    <g
       transform="matrix(0,0.67577862,-0.97479728,0,-3.1129522,3.8751832)"
       id="g4903"
       style="font-size:25.25481796px;font-style:normal;font-variant:normal;font-weight:normal;font-stretch:normal;line-height:125%;letter-spacing:0px;word-spacing:0px;opacity:0.84773667;fill:#ffffff;fill-opacity:1;stroke:none;font-family:Aller;-inkscape-font-specification:Aller" />
    <g
       transform="matrix(-0.94295563,0,0,1.0108694,65.655477,4.0861302)"
       id="g3787"
       style="fill:#ffffff;fill-opacity:1" />
    <g
       transform="matrix(-0.94295563,0,0,1.0108694,66.883304,4.0861302)"
       id="g8392">
      <rect
         width="12.524499"
         height="8.1754017"
         rx="0.65300667"
         ry="0.64862317"
         x="82.417664"
         y="-1.828465"
         id="rect8394"
         style="opacity:0.71666715;fill:#e9e9e9;fill-opacity:0;stroke:none" />
      <path
         d="m 81.553273,7.1656582 14.388534,-0.026051 -7.053204,-8.352343 z"
         id="path8396"
         style="fill:#939393;fill-opacity:1;stroke:none" />
    </g>
  </g>
  <g
     transform="matrix(0,-1.1198645,1.2231278,0,26.152792,-9.0838375)"
     id="left">
    <g
       transform="matrix(1.0140845,0,0,-1.0041527,1.5070423,74.629403)"
       id="g3439"
       style="fill:#bebdbb;fill-opacity:1">
      <rect
         width="17.75"
         height="16.25"
         x="-27.125"
         y="60.0625"
         id="rect3441"
         style="fill:none;stroke:none" />
    </g>
    <g
       transform="matrix(0,0.67577862,-0.97479728,0,-3.1129522,3.8751832)"
       id="g3443"
       style="font-size:25.25481796px;font-style:normal;font-variant:normal;font-weight:normal;font-stretch:normal;line-height:125%;letter-spacing:0px;word-spacing:0px;opacity:0.84773667;fill:#ffffff;fill-opacity:1;stroke:none;font-family:Aller;-inkscape-font-specification:Aller" />
    <g
       transform="matrix(-0.94295563,0,0,1.0108694,65.649868,4.0861302)"
       id="g3781"
       style="fill:#ffffff;fill-opacity:1" />
    <g
       transform="matrix(-0.94295563,0,0,1.0108694,66.883304,4.0861302)"
       id="g3445">
      <rect
         width="12.524499"
         height="8.1754017"
         rx="0.65300667"
         ry="0.64862317"
         x="82.417664"
         y="-1.828465"
         id="rect3447"
         style="opacity:0.71666715;fill:#e9e9e9;fill-opacity:0;stroke:none" />
      <path
         d="m 81.553273,7.1656582 14.388534,-0.026051 -7.053204,-8.352343 z"
         id="path3449"
         style="fill:#939393;fill-opacity:1;stroke:none" />
    </g>
  </g>
</svg>
