<?xml version="1.0" encoding="UTF-8" standalone="no"?>
<!-- Created with Inkscape (http://www.inkscape.org/) -->

<svg
   xmlns:dc="http://purl.org/dc/elements/1.1/"
   xmlns:cc="http://creativecommons.org/ns#"
   xmlns:rdf="http://www.w3.org/1999/02/22-rdf-syntax-ns#"
   xmlns:svg="http://www.w3.org/2000/svg"
   xmlns="http://www.w3.org/2000/svg"
   xmlns:xlink="http://www.w3.org/1999/xlink"
   version="1.0"
   width="192"
   height="96"
   id="svg2637">
  <metadata
     id="metadata88">
    <rdf:RDF>
      <cc:Work
         rdf:about="">
        <dc:format>image/svg+xml</dc:format>
        <dc:type
           rdf:resource="http://purl.org/dc/dcmitype/StillImage" />
        <dc:title></dc:title>
      </cc:Work>
    </rdf:RDF>
  </metadata>
  <defs
     id="defs2639">
    <filter
       color-interpolation-filters="sRGB"
       id="filter4339">
      <feGaussianBlur
         stdDeviation="0.21604708"
         id="feGaussianBlur4341" />
    </filter>
    <linearGradient
       id="linearGradient4325">
      <stop
         id="stop4327"
         style="stop-color:#ffffff;stop-opacity:1"
         offset="0" />
      <stop
         id="stop4333"
         style="stop-color:#ffffff;stop-opacity:0.71636361"
         offset="0.5" />
      <stop
         id="stop4329"
         style="stop-color:#ffffff;stop-opacity:0"
         offset="1" />
    </linearGradient>
    <radialGradient
       cx="101.26279"
       cy="20.264956"
       r="2.0894687"
       fx="101.26279"
       fy="20.264956"
       id="radialGradient7338"
       xlink:href="#linearGradient4325"
       gradientUnits="userSpaceOnUse"
       gradientTransform="matrix(1,0,0,2,0,-20.264956)" />
  </defs>
  <path
     d="m 103.35226,20.264956 a 2.089471,4.178942 0 1 1 -4.178942,0 2.089471,4.178942 0 1 1 4.178942,0 z"
     transform="matrix(0.6454765,-0.5545034,0.5545034,0.6454765,-178.27388,41.143779)"
     id="path4323"
     style="fill:url(#radialGradient7338);fill-opacity:1;stroke:none;filter:url(#filter4339)" />
  <g
     transform="matrix(0.9539243,0,0,1,4.0615385,0)"
     id="RSSNOW">
    <rect
       width="192.34657"
       height="96"
       x="0"
       y="-4.8316906e-13"
       id="rect7618"
       style="opacity:0;fill:#ffffff;fill-opacity:0;stroke:none" />
    <g
       transform="matrix(0.5013246,-0.04108652,5.7285405e-4,0.4630584,-64.322859,44.329054)"
       id="g4094">
      <rect
         width="83.962616"
         height="82.054817"
         ry="0"
         x="139.47173"
         y="-28.967545"
         transform="matrix(0.99608671,0.08838137,-0.00114268,0.99999935,0,0)"
         id="rect39871"
         style="fill:#f6c439;fill-opacity:1;stroke:none" />
      <path
         d="m 150.70562,15.562881 c -1.89026,-0.186678 -3.74325,-0.211661 -5.55299,-0.07965 l 0,8.15625 c 1.79827,-0.218261 3.64703,-0.264828 5.55299,-0.0766 15.32622,1.513579 27.76489,16.182002 27.76489,32.741994 0,2.059378 -0.21208,4.036023 -0.57843,5.942868 l 7.54858,0.74549 c 0.28759,-1.927024 0.43382,-3.914735 0.43382,-5.95716 0,-20.975988 -15.75566,-39.555992 -35.16886,-41.473192 z m 0,16 c -1.94637,-0.192218 -3.82785,-0.08614 -5.61083,0.289639 0.0284,0.24029 0.0578,0.478347 0.0578,0.724462 l 0,7.8125 c 1.68886,-0.70501 3.55756,-1.023663 5.55299,-0.826601 7.15224,0.706334 12.95695,7.551602 12.95695,15.279597 0,2.156046 -0.46571,4.129205 -1.27257,5.874323 l 7.89565,0.779754 c 0.50092,-1.859881 0.78089,-3.840897 0.78089,-5.922879 0,-12.143994 -9.12169,-22.900836 -20.36092,-24.010795 z m 0,16 c -3.06525,-0.302716 -5.55299,2.139604 -5.55299,5.4516 0,3.311998 2.48774,6.245681 5.55299,6.548397 3.06524,0.302716 5.55297,-2.139601 5.55297,-5.451599 0,-3.311999 -2.48773,-6.245685 -5.55297,-6.548398 z"
         id="path9653"
         style="fill:#ffffff;fill-opacity:1;stroke:none" />
    </g>
    <path
       d="m 69.800758,50.429687 c 0.592435,0.20053 1.166653,0.628915 1.722657,1.285156 0.565089,0.656258 1.130193,1.558601 1.695312,2.707032 L 76.021461,60 73.054665,60 70.443336,54.763671 c -0.674491,-1.36718 -1.33074,-2.274081 -1.96875,-2.720703 -0.628916,-0.446606 -1.490244,-0.669913 -2.583984,-0.669922 l -3.007812,0 0,8.626954 -2.761719,0 0,-20.41211 6.234375,0 c 2.333322,2.1e-5 4.074205,0.48765 5.222656,1.462891 1.148422,0.975278 1.72264,2.447282 1.722656,4.416015 -1.6e-5,1.28517 -0.300797,2.351575 -0.902343,3.199219 -0.592463,0.847667 -1.458347,1.435557 -2.597657,1.763672 m -6.917968,-8.572266 0,7.246094 3.472656,0 c 1.330719,1.1e-5 2.333322,-0.305327 3.007812,-0.916015 0.683581,-0.61978 1.025378,-1.52668 1.025391,-2.720704 -1.3e-5,-1.193994 -0.34181,-2.09178 -1.025391,-2.693359 -0.67449,-0.610659 -1.677093,-0.915997 -3.007812,-0.916016 l -3.472656,0 m 28.943359,-1.599609 0,2.693359 c -1.048191,-0.501284 -2.037122,-0.874982 -2.966797,-1.121093 -0.929699,-0.246076 -1.827484,-0.369122 -2.693359,-0.369141 -1.503914,1.9e-5 -2.666023,0.291685 -3.486328,0.875 -0.811203,0.58335 -1.216802,1.412777 -1.216797,2.488281 -5e-6,0.902358 0.268875,1.585951 0.80664,2.050782 0.546869,0.455741 1.576816,0.824882 3.089844,1.107421 l 1.667969,0.341797 c 2.059883,0.391939 3.57746,1.084646 4.552734,2.078125 0.984359,0.984384 1.476546,2.305997 1.476563,3.964844 -1.7e-5,1.977868 -0.66538,3.477216 -1.996094,4.498047 -1.321628,1.020833 -3.263032,1.53125 -5.824219,1.53125 -0.966153,0 -1.9961,-0.109375 -3.089844,-0.328125 -1.084639,-0.21875 -2.210289,-0.542317 -3.376953,-0.970703 l 0,-2.84375 c 1.121091,0.628909 2.219397,1.102867 3.294922,1.421875 1.075515,0.319012 2.132805,0.478517 3.171875,0.478515 1.576813,2e-6 2.793609,-0.309893 3.650391,-0.929687 0.856758,-0.619788 1.285143,-1.503902 1.285156,-2.652344 -1.3e-5,-1.002598 -0.309909,-1.786451 -0.929687,-2.351562 -0.610689,-0.565096 -1.61785,-0.988924 -3.021485,-1.271485 l -1.68164,-0.328125 c -2.059902,-0.410146 -3.550135,-1.052724 -4.470704,-1.927734 -0.920575,-0.874988 -1.380861,-2.091784 -1.380859,-3.650391 -2e-6,-1.80467 0.633461,-3.226544 1.900391,-4.265625 1.276036,-1.039042 3.030592,-1.558573 5.263672,-1.558593 0.957021,2e-5 1.93228,0.08661 2.925781,0.259765 0.993476,0.173198 2.009751,0.432963 3.048828,0.779297 m 17.773431,0 0,2.693359 c -1.04819,-0.501284 -2.03712,-0.874982 -2.96679,-1.121093 -0.9297,-0.246076 -1.82749,-0.369122 -2.69336,-0.369141 -1.50392,1.9e-5 -2.66603,0.291685 -3.48633,0.875 -0.8112,0.58335 -1.2168,1.412777 -1.2168,2.488281 0,0.902358 0.26888,1.585951 0.80664,2.050782 0.54687,0.455741 1.57682,0.824882 3.08985,1.107421 l 1.66797,0.341797 c 2.05988,0.391939 3.57746,1.084646 4.55273,2.078125 0.98436,0.984384 1.47655,2.305997 1.47656,3.964844 -1e-5,1.977868 -0.66538,3.477216 -1.99609,4.498047 -1.32163,1.020833 -3.26303,1.53125 -5.82422,1.53125 -0.96615,0 -1.9961,-0.109375 -3.08984,-0.328125 -1.08464,-0.21875 -2.210291,-0.542317 -3.376954,-0.970703 l 0,-2.84375 c 1.12109,0.628909 2.219394,1.102867 3.294914,1.421875 1.07552,0.319012 2.13281,0.478517 3.17188,0.478515 1.57681,2e-6 2.79361,-0.309893 3.65039,-0.929687 0.85676,-0.619788 1.28514,-1.503902 1.28516,-2.652344 -2e-5,-1.002598 -0.30991,-1.786451 -0.92969,-2.351562 -0.61069,-0.565096 -1.61785,-0.988924 -3.02149,-1.271485 l -1.68164,-0.328125 c -2.0599,-0.410146 -3.55013,-1.052724 -4.470696,-1.927734 -0.920575,-0.874988 -1.380861,-2.091784 -1.380859,-3.650391 -2e-6,-1.80467 0.633461,-3.226544 1.90039,-4.265625 1.276035,-1.039042 3.030585,-1.558573 5.263665,-1.558593 0.95703,2e-5 1.93228,0.08661 2.92579,0.259765 0.99347,0.173198 2.00975,0.432963 3.04882,0.779297"
       id="text7354"
       style="font-size:28px;font-style:normal;font-variant:normal;font-weight:normal;font-stretch:normal;writing-mode:lr-tb;fill:#787878;fill-opacity:1;stroke:none;font-family:Bitstream Vera Sans;-inkscape-font-specification:Bitstream Vera Sans" />
    <g
       transform="translate(5.4526897,0.269218)"
       id="g7727">
      <path
         d="m 116.08574,39.318672 3.71875,0 9.05078,17.076172 0,-17.076172 2.67969,0 0,20.41211 -3.71875,0 -9.05078,-17.076172 0,17.076172 -2.67969,0 0,-20.41211 m 29.23047,1.873047 c -2.00522,1.9e-5 -3.60027,0.747414 -4.78516,2.242188 -1.17578,1.494806 -1.76367,3.531913 -1.76367,6.111328 0,2.57032 0.58789,4.60287 1.76367,6.097656 1.18489,1.494794 2.77994,2.242189 4.78516,2.242187 2.00519,2e-6 3.59113,-0.747393 4.75781,-2.242187 1.17576,-1.494786 1.76365,-3.527336 1.76367,-6.097656 -2e-5,-2.579415 -0.58791,-4.616522 -1.76367,-6.111328 -1.16668,-1.494774 -2.75262,-2.242169 -4.75781,-2.242188 m 0,-2.242187 c 2.86196,2e-5 5.14972,0.961608 6.86328,2.884765 1.71352,1.914079 2.57029,4.484389 2.57031,7.710938 -2e-5,3.217455 -0.85679,5.787764 -2.57031,7.710937 -1.71356,1.914063 -4.00132,2.871094 -6.86328,2.871094 -2.8711,0 -5.16798,-0.957031 -6.89063,-2.871094 -1.71354,-1.914058 -2.57031,-4.484368 -2.57031,-7.710937 0,-3.226549 0.85677,-5.796859 2.57031,-7.710938 1.72265,-1.923157 4.01953,-2.884745 6.89063,-2.884765 m 11.93554,0.36914 2.78907,0 4.29297,17.253906 4.27929,-17.253906 3.10352,0 4.29297,17.253906 4.27929,-17.253906 2.80274,0 -5.12695,20.41211 -3.47266,0 -4.30664,-17.71875 -4.34766,17.71875 -3.47265,0 -5.11329,-20.41211"
         id="text7358"
         style="font-size:28px;font-style:normal;font-variant:normal;font-weight:normal;font-stretch:normal;writing-mode:lr-tb;fill:#f6c439;fill-opacity:1;stroke:none;font-family:Bitstream Vera Sans;-inkscape-font-specification:Bitstream Vera Sans" />
    </g>
    <path
       d="m 145.13346,68.092926 c -2.8711,-8e-6 -5.15236,-0.373477 -6.875,-1.128069 -1.08353,-0.474902 -1.82037,-1.060338 -2.21875,-1.74115 l 2.96875,0 c 0.29292,0.42988 0.72117,0.805245 1.34375,1.115808 1.18489,0.586507 2.77603,0.870566 4.78125,0.870575 2.00519,-8e-6 3.61457,-0.284069 4.78125,-0.870575 0.62257,-0.310563 1.05083,-0.685928 1.34375,-1.115808 l 2.96875,0 c -0.39838,0.680812 -1.13524,1.266248 -2.21875,1.74115 -1.71356,0.754593 -4.01304,1.12806 -6.875,1.128069 z m -29.21875,-0.147139 0,-2.72208 2.6875,0 0,1.422348 1.90625,-1.422348 2.8125,0 -3.6875,2.72208 -3.71875,0 z m 12.78125,0 0,-2.72208 2.65625,0 0,2.72208 -2.65625,0 z m 28.375,0 1.75,-2.72208 2.78125,0 -1.75,2.72208 -2.78125,0 z m 11.375,0 -1.71875,-2.72208 2.25,0 1.03125,1.66758 1.03125,-1.66758 2.21875,0 -1.71875,2.72208 -3.09375,0 z m 11.65625,0 -1.71875,-2.72208 2.78125,0 1.75,2.72208 -2.8125,0 z m -37.8125,-8.019099 c 0.88122,-0.0964 1.81512,-0.14714 2.84375,-0.147139 1.02536,0 1.99705,0.05074 2.875,0.147139 l -5.71875,0 z"
       id="path7735"
       style="font-size:28px;font-style:normal;font-variant:normal;font-weight:normal;font-stretch:normal;writing-mode:lr-tb;fill:none;stroke:none;font-family:Bitstream Vera Sans;-inkscape-font-specification:Bitstream Vera Sans" />
  </g>
</svg>
