<?xml version="1.0" encoding="utf-8"?>
<!-- Generator: Adobe Illustrator 15.1.0, SVG Export Plug-In . SVG Version: 6.00 Build 0)  -->
<!DOCTYPE svg PUBLIC "-//W3C//DTD SVG 1.1//EN" "http://www.w3.org/Graphics/SVG/1.1/DTD/svg11.dtd">
<svg version="1.1" id="Layer_1" xmlns="http://www.w3.org/2000/svg" xmlns:xlink="http://www.w3.org/1999/xlink" x="0px" y="0px"
	 width="24px" height="24px" viewBox="0 0 24 24" enable-background="new 0 0 24 24" xml:space="preserve">
<rect x="2" y="16" fill="#FFFFFF" width="2" height="6"/>
<rect x="5" y="16" fill="#FFFFFF" width="2" height="6"/>
<g opacity="0.8">
	<g opacity="0.3">
		<polygon points="16.033,9.222 22.172,1.741 22.76,2.161 18.162,11.155 		"/>
		<polygon points="1.241,12.5 1.241,11.155 5.275,7.654 6.62,8.464 11.274,19.912 7.964,21.914 5.275,11.155 		"/>
		<polyline points="22.76,22.955 18.725,13.846 17.379,12.5 10.36,18.113 11.274,19.912 22.354,23.26 22.723,23.26 		"/>
		<path d="M11.439,15.189l-2.102-4.035L12,9.81c1.344,0,4.034,1.345,4.034,1.345L11.439,15.189z"/>
	</g>
	<g>
		<polygon fill="#FFFFFF" points="16.033,8.222 22.172,0.741 22.76,1.161 18.162,10.155 		"/>
		<polygon fill="#FFFFFF" points="1.241,11.5 1.241,10.155 5.275,6.654 6.62,7.464 11.274,18.912 7.964,20.914 5.275,10.155 		"/>
		<polyline fill="#FFFFFF" points="22.76,21.955 18.725,12.846 17.379,11.5 10.36,17.113 11.274,18.912 22.354,22.26 22.723,22.26 
					"/>
		<path fill="#FFFFFF" d="M11.439,14.189l-2.102-4.035L12,8.81c1.344,0,4.034,1.345,4.034,1.345L11.439,14.189z"/>
	</g>
</g>
<path fill="#F15A25" d="M0,14v10H9V14H0z M4,22H2v-6h2V22z M7,22H5v-6h2L7,22z"/>
</svg>
