<?xml version="1.0" encoding="utf-8"?>
<!-- Generator: Adobe Illustrator 15.1.0, SVG Export Plug-In . SVG Version: 6.00 Build 0)  -->
<!DOCTYPE svg PUBLIC "-//W3C//DTD SVG 1.1//EN" "http://www.w3.org/Graphics/SVG/1.1/DTD/svg11.dtd">
<svg version="1.1" id="Layer_1" xmlns="http://www.w3.org/2000/svg" xmlns:xlink="http://www.w3.org/1999/xlink" x="0px" y="0px"
	 width="24px" height="24px" viewBox="0 0 24 24" enable-background="new 0 0 24 24" xml:space="preserve">
<g opacity="0.8">
	<g opacity="0.3">
		<polygon points="16.033,9.347 22.172,1.866 22.76,2.286 18.162,11.279 		"/>
		<polygon points="1.24,12.625 1.24,11.279 5.275,7.779 6.619,8.589 11.273,20.037 7.965,22.039 5.275,11.279 		"/>
		<polyline points="22.76,23.08 18.725,13.971 17.379,12.625 10.359,18.238 11.273,20.037 22.354,23.385 22.723,23.385 		"/>
		<path d="M11.439,15.314l-2.102-4.036L12,9.935c1.344,0,4.033,1.344,4.033,1.344L11.439,15.314z"/>
	</g>
	<g>
		<polygon fill="#FFFFFF" points="16.033,8.347 22.172,0.866 22.76,1.286 18.162,10.28 		"/>
		<polygon fill="#FFFFFF" points="1.24,11.625 1.24,10.28 5.275,6.779 6.619,7.589 11.273,19.037 7.965,21.039 5.275,10.28 		"/>
		<polyline fill="#FFFFFF" points="22.76,22.08 18.725,12.97 17.379,11.625 10.359,17.238 11.273,19.037 22.354,22.385 
			22.723,22.385 		"/>
		<path fill="#FFFFFF" d="M11.439,14.314L9.338,10.28L12,8.935c1.344,0,4.033,1.345,4.033,1.345L11.439,14.314z"/>
	</g>
</g>
</svg>
