<?xml version="1.0" encoding="utf-8"?>
<!-- Generator: Adobe Illustrator 15.1.0, SVG Export Plug-In . SVG Version: 6.00 Build 0)  -->
<!DOCTYPE svg PUBLIC "-//W3C//DTD SVG 1.1//EN" "http://www.w3.org/Graphics/SVG/1.1/DTD/svg11.dtd">
<svg version="1.1" id="Layer_1" xmlns="http://www.w3.org/2000/svg" xmlns:xlink="http://www.w3.org/1999/xlink" x="0px" y="0px"
	 width="24px" height="24px" viewBox="0 0 24 24" enable-background="new 0 0 24 24" xml:space="preserve">
<g opacity="0.8">
	<g opacity="0.3">
		<polygon points="16.033,9.222 22.172,1.741 22.76,2.161 18.162,11.154 		"/>
		<polygon points="1.24,12.5 1.24,11.154 5.275,7.654 6.619,8.464 11.273,19.912 7.965,21.914 5.275,11.154 		"/>
		<polyline points="22.76,22.955 18.725,13.846 17.379,12.5 10.359,18.113 11.273,19.912 22.354,23.26 22.723,23.26 		"/>
		<path d="M11.439,15.189l-2.102-4.035L12,9.81c1.344,0,4.033,1.344,4.033,1.344L11.439,15.189z"/>
	</g>
	<g>
		<polygon fill="#FFFFFF" points="16.033,8.222 22.172,0.741 22.76,1.161 18.162,10.155 		"/>
		<polygon fill="#FFFFFF" points="1.24,11.5 1.24,10.155 5.275,6.654 6.619,7.464 11.273,18.912 7.965,20.914 5.275,10.155 		"/>
		<polyline fill="#FFFFFF" points="22.76,21.955 18.725,12.845 17.379,11.5 10.359,17.113 11.273,18.912 22.354,22.26 22.723,22.26 
					"/>
		<path fill="#FFFFFF" d="M11.439,14.189l-2.102-4.035L12,8.81c1.344,0,4.033,1.345,4.033,1.345L11.439,14.189z"/>
	</g>
</g>
<path fill="#008900" d="M0,14v10h8.999V14H0z M6,20H3v-5h3V20z M6,23H3v-2h3V23z"/>
</svg>
